<svg width="64" height="64" viewBox="0 0 64 64" fill="none" xmlns="http://www.w3.org/2000/svg">
<g clip-path="url(#clip0_26_108)">
<path d="M32 64C23.5131 64 15.3737 60.6286 9.37258 54.6274C3.37142 48.6263 0 40.4869 0 32C0 23.5131 3.37142 15.3737 9.37258 9.37258C15.3737 3.37142 23.5131 0 32 0C40.4869 0 48.6263 3.37142 54.6274 9.37258C60.6286 15.3737 64 23.5131 64 32C64 40.4869 60.6286 48.6263 54.6274 54.6274C48.6263 60.6286 40.4869 64 32 64ZM46 34C46.5304 34 47.0391 33.7893 47.4142 33.4142C47.7893 33.0391 48 32.5304 48 32C48 31.4696 47.7893 30.9609 47.4142 30.5858C47.0391 30.2107 46.5304 30 46 30L22.828 30L31.416 21.416C31.7915 21.0405 32.0025 20.5311 32.0025 20C32.0025 19.4689 31.7915 18.9595 31.416 18.584C31.0405 18.2085 30.5311 17.9975 30 17.9975C29.4689 17.9975 28.9595 18.2085 28.584 18.584L16.584 30.584C16.3977 30.7698 16.25 30.9905 16.1492 31.2335C16.0483 31.4764 15.9964 31.7369 15.9964 32C15.9964 32.2631 16.0483 32.5236 16.1492 32.7665C16.25 33.0095 16.3977 33.2302 16.584 33.416L28.584 45.416C28.9595 45.7915 29.4689 46.0025 30 46.0025C30.5311 46.0025 31.0405 45.7915 31.416 45.416C31.7915 45.0405 32.0025 44.5311 32.0025 44C32.0025 43.4689 31.7915 42.9595 31.416 42.584L22.828 34L46 34Z" fill="white"/>
</g>
<defs>
<clipPath id="clip0_26_108">
<rect width="64" height="64" fill="white" transform="translate(64) rotate(90)"/>
</clipPath>
</defs>
</svg>
